<svg width="67" height="60" viewBox="0 0 67 60" fill="none" xmlns="http://www.w3.org/2000/svg">
    <g filter="url(#filter0_d_0_1)">
        <rect x="4" width="63" height="60" rx="12" fill="url(#paint0_linear_0_1)"/>
    </g>
    <path fill-rule="evenodd" clip-rule="evenodd" d="M27 20C27.5523 20 28 20.4477 28 21V22C28 22.5523 27.5523 23 27 23C26.4477 23 26 22.5523 26 22V21C26 20.4477 26.4477 20 27 20ZM27 25C28.1046 25 29 25.8954 29 27C29 28.1046 28.1046 29 27 29C25.8954 29 25 28.1046 25 27C25 25.8954 25.8954 25 27 25ZM44 28C45.1046 28 46 28.8954 46 30C46 31.1046 45.1046 32 44 32C42.8954 32 42 31.1046 42 30C42 28.8954 42.8954 28 44 28ZM35 31C36.1046 31 37 31.8954 37 33C37 34.1046 36.1046 35 35 35C33.8954 35 33 34.1046 33 33C33 31.8954 33.8954 31 35 31ZM35 37C35.5523 37 36 37.4477 36 38V40C36 40.5523 35.5523 41 35 41C34.4477 41 34 40.5523 34 40V38C34 37.4477 34.4477 37 35 37ZM27 31C27.5523 31 28 31.4477 28 32V40C28 40.5523 27.5523 41 27 41C26.4477 41 26 40.5523 26 40V32C26 31.4477 26.4477 31 27 31ZM44 20C44.5523 20 45 20.4477 45 21V25C45 25.5523 44.5523 26 44 26C43.4477 26 43 25.5523 43 25V21C43 20.4477 43.4477 20 44 20ZM44 33C44.5523 33 45 33.4477 45 34V40C45 40.5523 44.5523 41 44 41C43.4477 41 43 40.5523 43 40V34C43 33.4477 43.4477 33 44 33ZM35 20C35.5523 20 36 20.4477 36 21V28C36 28.5523 35.5523 29 35 29C34.4477 29 34 28.5523 34 28V21C34 20.4477 34.4477 20 35 20Z" fill="white"/>
    <defs>
        <filter id="filter0_d_0_1" x="0" y="-2" width="71" height="68" filterUnits="userSpaceOnUse" color-interpolation-filters="sRGB">
            <feFlood flood-opacity="0" result="BackgroundImageFix"/>
            <feColorMatrix in="SourceAlpha" type="matrix" values="0 0 0 0 0 0 0 0 0 0 0 0 0 0 0 0 0 0 127 0" result="hardAlpha"/>
            <feOffset dy="2"/>
            <feGaussianBlur stdDeviation="2"/>
            <feColorMatrix type="matrix" values="0 0 0 0 0.0601947 0 0 0 0 0.856799 0 0 0 0 0.536088 0 0 0 0.3 0"/>
            <feBlend mode="normal" in2="BackgroundImageFix" result="effect1_dropShadow_0_1"/>
            <feBlend mode="normal" in="SourceGraphic" in2="effect1_dropShadow_0_1" result="shape"/>
        </filter>
        <linearGradient id="paint0_linear_0_1" x1="4" y1="0" x2="4" y2="60" gradientUnits="userSpaceOnUse">
            <stop stop-color="#40DF9F"/>
            <stop offset="1" stop-color="#3ED598"/>
        </linearGradient>
    </defs>
</svg>
