<svg width="17" height="17" viewBox="0 0 17 17" fill="none" xmlns="http://www.w3.org/2000/svg">
    <rect width="17" height="17" rx="8.5" fill="#EDF1FA"/>
    <path d="M8.5 13C7.12134 13 6 11.7385 6 10.1875V6.25C6 6.04263 6.14935 5.87502 6.33331 5.87502C6.51733 5.87502 6.66669 6.04263 6.66669 6.25V10.1875C6.66669 11.3245 7.48901 12.25 8.5 12.25C9.51099 12.25 10.3333 11.3245 10.3333 10.1875V6.06248C10.3333 5.33875 9.81 4.75002 9.16669 4.75002C8.52332 4.75002 8 5.33875 8 6.06248V9.81252C8 10.1226 8.2243 10.375 8.5 10.375C8.7757 10.375 9 10.1226 9 9.81252V6.25C9 6.04263 9.14935 5.87502 9.33331 5.87502C9.51733 5.87502 9.66669 6.04263 9.66669 6.25V9.81252C9.66669 10.5362 9.14331 11.125 8.5 11.125C7.85669 11.125 7.33331 10.5362 7.33331 9.81252V6.06248C7.33331 4.92553 8.15564 4 9.16669 4C10.1777 4 11 4.92553 11 6.06248V10.1875C11 11.7385 9.87866 13 8.5 13Z" fill="#1A3B34"/>
</svg>
