<svg width="18" height="18" viewBox="0 0 18 18" fill="none" xmlns="http://www.w3.org/2000/svg">
    <path d="M3.9387 7.26131C3.75177 7.80627 3.64989 8.39127 3.64989 9C3.64996 9.66069 3.76963 10.2937 3.98918 10.8777C4.74922 12.9061 6.70598 14.35 9 14.35C9.98604 14.35 10.9098 14.0836 11.7024 13.6182C12.7548 13.001 13.5772 12.0353 14.0104 10.8791H9.19782V7.31869H14.0806H17.8428C17.9461 7.86312 18 8.42537 18 9C18 9.64431 17.9322 10.2729 17.8032 10.8791C17.365 12.9422 16.2202 14.7437 14.6344 16.0186C13.092 17.2582 11.1328 18 9 18C5.57258 18 2.5927 16.0843 1.07258 13.2651C0.388195 11.9957 0 10.5433 0 9C0 7.50758 0.362953 6.10021 1.00631 4.86098C2.50418 1.97307 5.52164 0 9 0C11.1838 0 13.186 0.777867 14.7447 2.07197L11.8291 4.45893C11.0087 3.94615 10.039 3.64992 9 3.64992C6.65406 3.64992 4.6607 5.16013 3.93873 7.26131H3.9387Z" fill="#96A7AF"/>
</svg>
